<svg xmlns="http://www.w3.org/2000/svg" viewBox="0 0 16 16" fill="currentColor" stroke="none">
  <!-- Outer flame silhouette -->
  <path d="M8 1.2c-.4 1.6-1.4 2.5-2.4 3.4C4.3 5.7 3.2 7 3.2 8.9c0 2.7 2.1 4.9 4.8 4.9s4.8-2.2 4.8-4.9c0-1.5-.7-2.6-1.5-3.5-.7-.7-1.4-1.3-1.7-2.2-.3.7-.7 1.1-1.1 1.5-.1-.6-.2-1.6-.5-3.5z"/>
  <!-- Inner highlight -->
  <path d="M8 6.5c-.2.8-.7 1.3-1.2 1.8-.5.5-1 1.1-1 2 0 1.3 1 2.3 2.2 2.3s2.2-1 2.2-2.3c0-.7-.3-1.2-.7-1.7-.4-.4-.7-.7-.9-1.2-.2.4-.4.6-.6.8 0-.3-.1-.8-.2-1.7z" fill-opacity="0.45"/>
</svg>
